<mxfile host="Electron" modified="2024-05-24T18:15:14.548Z" agent="Mozilla/5.0 (Windows NT 10.0; Win64; x64) AppleWebKit/537.36 (KHTML, like Gecko) draw.io/23.0.2 Chrome/120.0.6099.109 Electron/28.1.0 Safari/537.36" etag="fE2VevlTMp5PhIdKcxOk" version="23.0.2" type="device">
  <diagram id="C5RBs43oDa-KdzZeNtuy" name="Page-1">
    <mxGraphModel dx="2176" dy="917" grid="1" gridSize="10" guides="1" tooltips="1" connect="1" arrows="1" fold="1" page="1" pageScale="1" pageWidth="827" pageHeight="1169" math="0" shadow="0">
      <root>
        <mxCell id="WIyWlLk6GJQsqaUBKTNV-0" />
        <mxCell id="WIyWlLk6GJQsqaUBKTNV-1" parent="WIyWlLk6GJQsqaUBKTNV-0" />
        <mxCell id="eoHgqAT0p2yifrJpK1Tp-49" style="edgeStyle=orthogonalEdgeStyle;rounded=0;jumpStyle=arc;jumpSize=8;orthogonalLoop=1;jettySize=auto;html=1;entryX=0;entryY=0.5;entryDx=0;entryDy=0;labelBackgroundColor=default;strokeColor=default;align=center;verticalAlign=middle;fontFamily=Helvetica;fontSize=11;fontColor=default;endArrow=classic;targetPerimeterSpacing=0;curved=1;" edge="1" parent="WIyWlLk6GJQsqaUBKTNV-1" source="keyType-3" target="eoHgqAT0p2yifrJpK1Tp-10">
          <mxGeometry relative="1" as="geometry" />
        </mxCell>
        <mxCell id="eoHgqAT0p2yifrJpK1Tp-6" style="edgeStyle=orthogonalEdgeStyle;rounded=0;orthogonalLoop=1;jettySize=auto;html=1;jumpStyle=arc;jumpSize=8;targetPerimeterSpacing=0;curved=1;" edge="1" parent="WIyWlLk6GJQsqaUBKTNV-1" source="eoHgqAT0p2yifrJpK1Tp-4" target="eoHgqAT0p2yifrJpK1Tp-0">
          <mxGeometry relative="1" as="geometry" />
        </mxCell>
        <mxCell id="eoHgqAT0p2yifrJpK1Tp-7" style="edgeStyle=orthogonalEdgeStyle;rounded=0;orthogonalLoop=1;jettySize=auto;html=1;jumpStyle=arc;jumpSize=8;targetPerimeterSpacing=0;curved=1;" edge="1" parent="WIyWlLk6GJQsqaUBKTNV-1" source="eoHgqAT0p2yifrJpK1Tp-4" target="eoHgqAT0p2yifrJpK1Tp-5">
          <mxGeometry relative="1" as="geometry" />
        </mxCell>
        <mxCell id="eoHgqAT0p2yifrJpK1Tp-12" style="edgeStyle=orthogonalEdgeStyle;rounded=0;orthogonalLoop=1;jettySize=auto;html=1;entryX=0.5;entryY=1;entryDx=0;entryDy=0;jumpStyle=arc;jumpSize=8;targetPerimeterSpacing=0;curved=1;" edge="1" parent="WIyWlLk6GJQsqaUBKTNV-1" source="eoHgqAT0p2yifrJpK1Tp-9" target="eoHgqAT0p2yifrJpK1Tp-5">
          <mxGeometry relative="1" as="geometry" />
        </mxCell>
        <mxCell id="eoHgqAT0p2yifrJpK1Tp-11" style="edgeStyle=orthogonalEdgeStyle;rounded=0;orthogonalLoop=1;jettySize=auto;html=1;jumpStyle=arc;jumpSize=8;targetPerimeterSpacing=0;curved=1;" edge="1" parent="WIyWlLk6GJQsqaUBKTNV-1" source="eoHgqAT0p2yifrJpK1Tp-10" target="eoHgqAT0p2yifrJpK1Tp-5">
          <mxGeometry relative="1" as="geometry" />
        </mxCell>
        <mxCell id="eoHgqAT0p2yifrJpK1Tp-14" style="edgeStyle=orthogonalEdgeStyle;rounded=0;orthogonalLoop=1;jettySize=auto;html=1;entryX=0.5;entryY=1;entryDx=0;entryDy=0;jumpStyle=arc;jumpSize=8;targetPerimeterSpacing=0;curved=1;" edge="1" parent="WIyWlLk6GJQsqaUBKTNV-1" source="eoHgqAT0p2yifrJpK1Tp-13" target="eoHgqAT0p2yifrJpK1Tp-0">
          <mxGeometry relative="1" as="geometry" />
        </mxCell>
        <mxCell id="eoHgqAT0p2yifrJpK1Tp-16" style="edgeStyle=orthogonalEdgeStyle;rounded=0;orthogonalLoop=1;jettySize=auto;html=1;jumpStyle=arc;jumpSize=8;targetPerimeterSpacing=0;curved=1;" edge="1" parent="WIyWlLk6GJQsqaUBKTNV-1" source="eoHgqAT0p2yifrJpK1Tp-15" target="eoHgqAT0p2yifrJpK1Tp-13">
          <mxGeometry relative="1" as="geometry" />
        </mxCell>
        <mxCell id="eoHgqAT0p2yifrJpK1Tp-17" style="edgeStyle=orthogonalEdgeStyle;rounded=0;orthogonalLoop=1;jettySize=auto;html=1;jumpStyle=arc;jumpSize=8;targetPerimeterSpacing=0;curved=1;" edge="1" parent="WIyWlLk6GJQsqaUBKTNV-1" source="eoHgqAT0p2yifrJpK1Tp-15" target="eoHgqAT0p2yifrJpK1Tp-9">
          <mxGeometry relative="1" as="geometry" />
        </mxCell>
        <mxCell id="eoHgqAT0p2yifrJpK1Tp-20" style="edgeStyle=orthogonalEdgeStyle;rounded=0;orthogonalLoop=1;jettySize=auto;html=1;jumpStyle=arc;jumpSize=8;targetPerimeterSpacing=0;curved=1;" edge="1" parent="WIyWlLk6GJQsqaUBKTNV-1" source="eoHgqAT0p2yifrJpK1Tp-19" target="eoHgqAT0p2yifrJpK1Tp-0">
          <mxGeometry relative="1" as="geometry" />
        </mxCell>
        <mxCell id="eoHgqAT0p2yifrJpK1Tp-43" style="edgeStyle=orthogonalEdgeStyle;rounded=0;orthogonalLoop=1;jettySize=auto;html=1;jumpStyle=arc;jumpSize=8;targetPerimeterSpacing=0;curved=1;" edge="1" parent="WIyWlLk6GJQsqaUBKTNV-1" source="keyType-1" target="eoHgqAT0p2yifrJpK1Tp-15">
          <mxGeometry relative="1" as="geometry" />
        </mxCell>
        <mxCell id="eoHgqAT0p2yifrJpK1Tp-45" style="edgeStyle=orthogonalEdgeStyle;rounded=0;orthogonalLoop=1;jettySize=auto;html=1;jumpStyle=arc;jumpSize=8;targetPerimeterSpacing=0;curved=1;" edge="1" parent="WIyWlLk6GJQsqaUBKTNV-1" source="keyType-1" target="eoHgqAT0p2yifrJpK1Tp-9">
          <mxGeometry relative="1" as="geometry" />
        </mxCell>
        <mxCell id="eoHgqAT0p2yifrJpK1Tp-47" style="edgeStyle=orthogonalEdgeStyle;rounded=0;jumpStyle=arc;jumpSize=8;orthogonalLoop=1;jettySize=auto;html=1;entryX=0;entryY=0.5;entryDx=0;entryDy=0;labelBackgroundColor=default;strokeColor=default;align=center;verticalAlign=middle;fontFamily=Helvetica;fontSize=11;fontColor=default;endArrow=classic;targetPerimeterSpacing=0;curved=1;" edge="1" parent="WIyWlLk6GJQsqaUBKTNV-1" source="keyType-1" target="eoHgqAT0p2yifrJpK1Tp-10">
          <mxGeometry relative="1" as="geometry" />
        </mxCell>
        <mxCell id="eoHgqAT0p2yifrJpK1Tp-42" style="edgeStyle=orthogonalEdgeStyle;rounded=0;orthogonalLoop=1;jettySize=auto;html=1;jumpStyle=arc;jumpSize=8;targetPerimeterSpacing=0;curved=1;" edge="1" parent="WIyWlLk6GJQsqaUBKTNV-1" source="keyType-2" target="eoHgqAT0p2yifrJpK1Tp-15">
          <mxGeometry relative="1" as="geometry" />
        </mxCell>
        <mxCell id="eoHgqAT0p2yifrJpK1Tp-44" style="edgeStyle=orthogonalEdgeStyle;rounded=0;orthogonalLoop=1;jettySize=auto;html=1;jumpStyle=arc;jumpSize=8;targetPerimeterSpacing=0;curved=1;" edge="1" parent="WIyWlLk6GJQsqaUBKTNV-1" source="keyType-3" target="eoHgqAT0p2yifrJpK1Tp-15">
          <mxGeometry relative="1" as="geometry" />
        </mxCell>
        <mxCell id="eoHgqAT0p2yifrJpK1Tp-46" style="edgeStyle=orthogonalEdgeStyle;rounded=0;orthogonalLoop=1;jettySize=auto;html=1;jumpStyle=arc;jumpSize=8;targetPerimeterSpacing=0;curved=1;" edge="1" parent="WIyWlLk6GJQsqaUBKTNV-1" source="keyType-3" target="eoHgqAT0p2yifrJpK1Tp-9">
          <mxGeometry relative="1" as="geometry" />
        </mxCell>
        <mxCell id="eoHgqAT0p2yifrJpK1Tp-54" style="edgeStyle=orthogonalEdgeStyle;rounded=0;jumpStyle=arc;jumpSize=8;orthogonalLoop=1;jettySize=auto;html=1;labelBackgroundColor=default;strokeColor=default;align=center;verticalAlign=middle;fontFamily=Helvetica;fontSize=11;fontColor=default;endArrow=classic;targetPerimeterSpacing=0;curved=1;" edge="1" parent="WIyWlLk6GJQsqaUBKTNV-1" source="keyType-4" target="eoHgqAT0p2yifrJpK1Tp-19">
          <mxGeometry relative="1" as="geometry" />
        </mxCell>
        <mxCell id="eoHgqAT0p2yifrJpK1Tp-50" style="edgeStyle=orthogonalEdgeStyle;rounded=0;jumpStyle=arc;jumpSize=8;orthogonalLoop=1;jettySize=auto;html=1;labelBackgroundColor=default;strokeColor=default;align=center;verticalAlign=middle;fontFamily=Helvetica;fontSize=11;fontColor=default;endArrow=classic;targetPerimeterSpacing=0;curved=1;" edge="1" parent="WIyWlLk6GJQsqaUBKTNV-1" source="keyType-5" target="eoHgqAT0p2yifrJpK1Tp-10">
          <mxGeometry relative="1" as="geometry" />
        </mxCell>
        <mxCell id="eoHgqAT0p2yifrJpK1Tp-0" value="DataFetchingEditDtoControllerArray" style="rounded=1;whiteSpace=wrap;html=1;fillColor=#dae8fc;strokeColor=#6c8ebf;fontSize=14;fontStyle=1" vertex="1" parent="WIyWlLk6GJQsqaUBKTNV-1">
          <mxGeometry x="490" y="20" width="290" height="60" as="geometry" />
        </mxCell>
        <mxCell id="eoHgqAT0p2yifrJpK1Tp-4" value="DtoControllerArray" style="rounded=1;whiteSpace=wrap;html=1;" vertex="1" parent="WIyWlLk6GJQsqaUBKTNV-1">
          <mxGeometry x="360" y="235" width="120" height="60" as="geometry" />
        </mxCell>
        <mxCell id="eoHgqAT0p2yifrJpK1Tp-5" value="EditAddDeleteDtoControllerArray" style="rounded=1;whiteSpace=wrap;html=1;fillColor=#dae8fc;strokeColor=#6c8ebf;fontSize=14;fontStyle=1" vertex="1" parent="WIyWlLk6GJQsqaUBKTNV-1">
          <mxGeometry x="80" y="20" width="240" height="60" as="geometry" />
        </mxCell>
        <mxCell id="eoHgqAT0p2yifrJpK1Tp-9" value="EditAddDeleteController" style="rounded=1;whiteSpace=wrap;html=1;" vertex="1" parent="WIyWlLk6GJQsqaUBKTNV-1">
          <mxGeometry x="20" y="235" width="180" height="60" as="geometry" />
        </mxCell>
        <mxCell id="eoHgqAT0p2yifrJpK1Tp-10" value="useMasterListControllerAddDelete" style="rounded=1;whiteSpace=wrap;html=1;" vertex="1" parent="WIyWlLk6GJQsqaUBKTNV-1">
          <mxGeometry x="-158" y="120" width="196" height="50" as="geometry" />
        </mxCell>
        <mxCell id="eoHgqAT0p2yifrJpK1Tp-13" value="EditController" style="rounded=1;whiteSpace=wrap;html=1;" vertex="1" parent="WIyWlLk6GJQsqaUBKTNV-1">
          <mxGeometry x="640" y="235" width="120" height="60" as="geometry" />
        </mxCell>
        <mxCell id="eoHgqAT0p2yifrJpK1Tp-15" value="useChangesTrackerControllers" style="rounded=1;whiteSpace=wrap;html=1;" vertex="1" parent="WIyWlLk6GJQsqaUBKTNV-1">
          <mxGeometry x="320" y="350" width="210" height="60" as="geometry" />
        </mxCell>
        <mxCell id="eoHgqAT0p2yifrJpK1Tp-19" value="useMasterListFetchController" style="rounded=1;whiteSpace=wrap;html=1;" vertex="1" parent="WIyWlLk6GJQsqaUBKTNV-1">
          <mxGeometry x="850" y="120" width="196" height="50" as="geometry" />
        </mxCell>
        <mxCell id="keyType-2" value="CHANGES" style="rounded=1;whiteSpace=wrap;html=1;" vertex="1" parent="WIyWlLk6GJQsqaUBKTNV-1">
          <mxGeometry x="325" y="560" width="200" height="50" as="geometry" />
        </mxCell>
        <mxCell id="eoHgqAT0p2yifrJpK1Tp-58" style="edgeStyle=orthogonalEdgeStyle;shape=connector;rounded=0;jumpStyle=arc;jumpSize=8;orthogonalLoop=1;jettySize=auto;html=1;labelBackgroundColor=default;strokeColor=default;align=center;verticalAlign=middle;fontFamily=Helvetica;fontSize=11;fontColor=default;endArrow=classic;curved=1;" edge="1" parent="WIyWlLk6GJQsqaUBKTNV-1" source="keyType-4" target="eoHgqAT0p2yifrJpK1Tp-10">
          <mxGeometry relative="1" as="geometry" />
        </mxCell>
        <mxCell id="keyType-4" value="ID_LIST" style="rounded=1;whiteSpace=wrap;html=1;" vertex="1" parent="WIyWlLk6GJQsqaUBKTNV-1">
          <mxGeometry x="325" y="700" width="200" height="50" as="geometry" />
        </mxCell>
        <mxCell id="eoHgqAT0p2yifrJpK1Tp-55" style="edgeStyle=orthogonalEdgeStyle;rounded=0;jumpStyle=arc;jumpSize=8;orthogonalLoop=1;jettySize=auto;html=1;labelBackgroundColor=default;strokeColor=default;align=center;verticalAlign=middle;fontFamily=Helvetica;fontSize=11;fontColor=default;endArrow=classic;targetPerimeterSpacing=0;curved=1;" edge="1" parent="WIyWlLk6GJQsqaUBKTNV-1" source="keyType-5" target="eoHgqAT0p2yifrJpK1Tp-19">
          <mxGeometry relative="1" as="geometry" />
        </mxCell>
        <mxCell id="keyType-5" value="MASTER_LIST" style="rounded=1;whiteSpace=wrap;html=1;" vertex="1" parent="WIyWlLk6GJQsqaUBKTNV-1">
          <mxGeometry x="325" y="630" width="200" height="50" as="geometry" />
        </mxCell>
        <mxCell id="eoHgqAT0p2yifrJpK1Tp-57" style="edgeStyle=orthogonalEdgeStyle;rounded=0;jumpStyle=arc;jumpSize=8;orthogonalLoop=1;jettySize=auto;html=1;labelBackgroundColor=default;strokeColor=default;align=center;verticalAlign=middle;fontFamily=Helvetica;fontSize=11;fontColor=default;endArrow=classic;targetPerimeterSpacing=0;curved=1;" edge="1" parent="WIyWlLk6GJQsqaUBKTNV-1" source="keyType-6" target="eoHgqAT0p2yifrJpK1Tp-56">
          <mxGeometry relative="1" as="geometry" />
        </mxCell>
        <mxCell id="keyType-6" value="MASTER_MAP" style="rounded=1;whiteSpace=wrap;html=1;" vertex="1" parent="WIyWlLk6GJQsqaUBKTNV-1">
          <mxGeometry x="314" y="970" width="200" height="50" as="geometry" />
        </mxCell>
        <mxCell id="keyType-1" value="ADDED" style="rounded=1;whiteSpace=wrap;html=1;fillColor=#f8cecc;strokeColor=#b85450;" vertex="1" parent="WIyWlLk6GJQsqaUBKTNV-1">
          <mxGeometry x="-358" y="440" width="200" height="50" as="geometry" />
        </mxCell>
        <mxCell id="keyType-3" value="DELETED" style="rounded=1;whiteSpace=wrap;html=1;fillColor=#f8cecc;strokeColor=#b85450;" vertex="1" parent="WIyWlLk6GJQsqaUBKTNV-1">
          <mxGeometry x="-210" y="570" width="200" height="50" as="geometry" />
        </mxCell>
        <mxCell id="eoHgqAT0p2yifrJpK1Tp-56" value="MasterMapController" style="rounded=1;whiteSpace=wrap;html=1;fontFamily=Helvetica;fontSize=14;fillColor=#e1d5e7;strokeColor=#9673a6;fontStyle=1" vertex="1" parent="WIyWlLk6GJQsqaUBKTNV-1">
          <mxGeometry x="320" y="830" width="186" height="60" as="geometry" />
        </mxCell>
      </root>
    </mxGraphModel>
  </diagram>
</mxfile>
